<svg xmlns="http://www.w3.org/2000/svg" xmlns:xlink="http://www.w3.org/1999/xlink" width="178.408203125" height="116.40625"><path d="M60.30 73.73L60.30 88.82Q55.62 91.50 50.56 92.87Q45.51 94.24 40.04 94.24L40.04 94.24Q23.63 94.24 14.06 84.06Q4.49 73.88 4.49 56.45L4.49 56.45Q4.49 38.96 14.06 28.78Q23.63 18.60 40.04 18.60L40.04 18.60Q45.51 18.60 50.56 19.97Q55.62 21.34 60.30 24.02L60.30 24.02L60.30 39.11Q55.57 35.55 51.00 33.89Q46.44 32.23 41.41 32.23L41.41 32.23Q32.32 32.23 27.15 38.67Q21.97 45.12 21.97 56.45L21.97 56.45Q21.97 67.72 27.15 74.17Q32.32 80.62 41.41 80.62L41.41 80.62Q46.44 80.62 51.00 78.96Q55.57 77.29 60.30 73.73L60.30 73.73ZM94.17 65.92L94.17 35.40L75.62 65.92L94.17 65.92ZM65.07 63.43L91.34 19.92L110.14 19.92L110.14 65.92L119.51 65.92L119.51 79.54L110.14 79.54L110.14 92.82L94.17 92.82L94.17 79.54L65.07 79.54L65.07 63.43ZM172.52 22.22L172.52 22.22L172.52 37.65Q167.15 34.96 162.00 33.59Q156.85 32.23 152.26 32.23L152.26 32.23Q146.20 32.23 143.30 34.08Q140.39 35.94 140.39 39.84L140.39 39.84Q140.39 42.77 142.34 44.41Q144.30 46.04 149.47 47.22L149.47 47.22L156.65 48.83Q167.64 51.27 172.23 56.25Q176.82 61.23 176.82 70.41L176.82 70.41Q176.82 82.47 170.40 88.35Q163.97 94.24 150.74 94.24L150.74 94.24Q144.49 94.24 138.22 92.92Q131.94 91.60 125.64 89.01L125.64 89.01L125.64 73.14Q131.94 76.86 137.80 78.74Q143.66 80.62 149.13 80.62L149.13 80.62Q154.65 80.62 157.60 78.56Q160.56 76.51 160.56 72.71L160.56 72.71Q160.56 69.29 158.55 67.43Q156.55 65.58 150.55 64.11L150.55 64.11L144.00 62.50Q134.19 60.16 129.62 55.03Q125.06 49.90 125.06 41.21L125.06 41.21Q125.06 30.32 131.41 24.46Q137.75 18.60 149.57 18.60L149.57 18.60Q154.99 18.60 160.70 19.51Q166.42 20.41 172.52 22.22Z"/></svg>